<svg xmlns="http://www.w3.org/2000/svg" width="19.635" height="19.626" viewBox="0 0 19.635 19.626"><path d="M18.868,10.771A.767.767,0,0,1,18.1,10C18.11,2.6,9.186-1.191,4.043,4.17A.767.767,0,1,1,2.938,3.107,9.654,9.654,0,0,1,18.871,6.192,9.846,9.846,0,0,1,19.635,10a.767.767,0,0,1-.767.767ZM5.255,6.362a.767.767,0,0,0-.767-.767H2.3a.768.768,0,0,1-.767-.767V2.642A.767.767,0,0,0,0,2.642V4.828a2.3,2.3,0,0,0,2.3,2.3H4.488A.767.767,0,0,0,5.255,6.362Zm8.325,12.571A9.807,9.807,0,0,0,16.7,16.749a.767.767,0,1,0-1.105-1.064C10.446,21.048,1.527,17.251,1.535,9.851A.767.767,0,0,0,0,9.852a9.9,9.9,0,0,0,9.741,9.893A9.449,9.449,0,0,0,13.579,18.933Zm6.056-1.719V15.028a2.3,2.3,0,0,0-2.3-2.3H15.149a.767.767,0,0,0,0,1.534h2.186a.768.768,0,0,1,.767.767v2.186a.767.767,0,0,0,1.534,0Z" transform="translate(0 -0.12)" fill="#66cb17"></path></svg>