<svg xmlns="http://www.w3.org/2000/svg" width="32.069" height="28" viewBox="0 0 32.069 28"><path d="M254.672,263.75h-4.326A2.149,2.149,0,0,0,248.2,265.9v3.317a2.149,2.149,0,0,0,2.147,2.147h4.326a2.149,2.149,0,0,0,2.147-2.147V265.9A2.149,2.149,0,0,0,254.672,263.75Zm.585,5.464a.587.587,0,0,1-.585.585h-4.326a.587.587,0,0,1-.585-.585V265.9a.587.587,0,0,1,.585-.585h4.326a.587.587,0,0,1,.585.585Z" transform="translate(-231.892 -248.46)" fill="#fff"></path><path d="M32.069,40.224a.73.73,0,0,0-.1-.387l-4.77-8.388a.791.791,0,0,0-.681-.4H5.55a.777.777,0,0,0-.681.4L.1,39.837a.8.8,0,0,0-.1.387,4.6,4.6,0,0,0,2.752,4.207V58.264a.789.789,0,0,0,.786.786H28.524a.789.789,0,0,0,.786-.786V44.529a.346.346,0,0,0-.007-.085A4.613,4.613,0,0,0,32.069,40.224ZM6.009,32.629H26.054l3.729,6.559H2.287Zm16.814,8.125a3.022,3.022,0,0,1-5.95,0Zm-7.621,0a3.026,3.026,0,0,1-5.956,0Zm-13.577,0H7.582a3.026,3.026,0,0,1-5.956,0ZM13.21,57.477H8.689V48.992A1.12,1.12,0,0,1,9.81,47.871H12.1a1.12,1.12,0,0,1,1.121,1.121v8.486Zm14.527,0H14.783V48.992A2.7,2.7,0,0,0,12.09,46.3H9.8A2.7,2.7,0,0,0,7.11,48.992v8.492H4.325V44.817c.092.007.183.007.275.007a4.594,4.594,0,0,0,3.814-2.031,4.6,4.6,0,0,0,7.627,0,4.583,4.583,0,0,0,7.614,0,4.594,4.594,0,0,0,3.814,2.031c.092,0,.177-.007.269-.007v12.66Zm-.269-14.226a3.021,3.021,0,0,1-2.975-2.49h5.956A3.039,3.039,0,0,1,27.469,43.251Z" transform="translate(0 -31.05)" fill="#fff"></path></svg>