<svg xmlns="http://www.w3.org/2000/svg" width="28" height="26.25" viewBox="0 0 28 26.25"><g transform="translate(0 -16)"><path d="M22.531,136H5.469A5.485,5.485,0,0,0,0,141.489v8.782a5.485,5.485,0,0,0,5.469,5.489H22.531A5.485,5.485,0,0,0,28,150.27v-8.782A5.485,5.485,0,0,0,22.531,136Zm3.281,14.27a3.291,3.291,0,0,1-3.281,3.293H5.469a3.291,3.291,0,0,1-3.281-3.293v-8.782A3.291,3.291,0,0,1,5.469,138.2H22.531a3.291,3.291,0,0,1,3.281,3.293Z" transform="translate(0 -113.509)" fill="#fff"></path><path d="M163.573,16h-4.328A3.249,3.249,0,0,0,156,19.246a1.082,1.082,0,0,0,2.164,0,1.083,1.083,0,0,1,1.082-1.082h4.328a1.083,1.083,0,0,1,1.082,1.082,1.082,1.082,0,0,0,2.164,0A3.249,3.249,0,0,0,163.573,16Z" transform="translate(-147.409)" fill="#fff"></path><path d="M81.1,298.164h1.1v1.082a1.1,1.1,0,0,0,2.2,0v-1.082H94.948v1.082a1.1,1.1,0,0,0,2.2,0v-1.082h1.1a1.082,1.082,0,1,0,0-2.164H81.1a1.082,1.082,0,1,0,0,2.164Z" transform="translate(-75.672 -264.654)" fill="#fff"></path></g></svg>