<?xml version="1.0" encoding="utf-8"?>
<!-- Generator: Adobe Illustrator 24.3.0, SVG Export Plug-In . SVG Version: 6.00 Build 0)  -->
<svg version="1.1" id="Layer_1" xmlns="http://www.w3.org/2000/svg" xmlns:xlink="http://www.w3.org/1999/xlink" x="0px" y="0px"
	 viewBox="0 0 165 49.8" style="enable-background:new 0 0 165 49.8;" xml:space="preserve">
<style type="text/css">
	.st0{fill-rule:evenodd;clip-rule:evenodd;fill:#424242;}
	.st1{fill-rule:evenodd;clip-rule:evenodd;fill:#808285;}
	.st2{fill:#8ED457;}
	.st3{fill:url(#Path_348_1_);}
	.st4{fill:#94D761;}
	.st5{fill:url(#Path_350_1_);}
	.st6{fill:url(#Path_351_1_);}
	.st7{fill:url(#Path_352_1_);}
	.st8{opacity:0.62;fill:url(#Path_353_1_);enable-background:new    ;}
	.st9{opacity:0.302;fill:url(#Path_354_1_);enable-background:new    ;}
	.st10{opacity:0.302;fill:url(#Path_355_1_);enable-background:new    ;}
</style>
<g id="logortl" transform="translate(114.911)">
	<path id="Path_1341" class="st0" d="M-20.1,20.5c1.5,0,2.7-1.2,2.7-2.7V10h0.9c1,0,1.8,0.8,1.8,1.7c0,0,0,0,0,0v6.1
		c0,2.9-2.4,5.3-5.3,5.3h-2.6v-0.9c0-1,0.8-1.8,1.7-1.8c0,0,0,0,0,0L-20.1,20.5z M-94.5,19.2c-1.3,0-2.6-0.6-3.5-1.6
		c-0.9,0.9-2.1,1.5-3.4,1.6h-8.2c-2.9,0-5.3-2.4-5.3-5.3v-1.2c0-2.9,2.4-5.3,5.3-5.3h2.6v0.9c0,1-0.8,1.7-1.7,1.8c0,0,0,0,0,0
		c-0.5,0-1,0-1.5,0.1c-1.2,0.3-2,1.4-2,2.6v1.2c0,1.5,1.2,2.7,2.7,2.7h7.8c1.5,0,2.7-1.2,2.7-2.7V7.4h0.9c0.8,0,1.5,0.5,1.7,1.3
		c0,0.2,0.1,0.3,0.1,0.5v5.5c0,1.1,0.9,2,2,2c1,0,1.9-0.8,2-1.8V7.4h0.9c1,0,1.8,0.8,1.8,1.7c0,0,0,0,0,0v5.5c0,0.1,0,0.3,0,0.4
		c0.2,0.9,1,1.5,1.9,1.5h15.1v-3.9c0-1.5-1.2-2.7-2.7-2.7h-7.8v3.9h-0.9c-1,0-1.8-0.8-1.8-1.7c0,0,0,0,0,0V7.3h10.5
		c2.9,0,5.3,2.4,5.3,5.3v6.5h-17.8c-1.2,0-2.4-0.5-3.3-1.4C-92.1,18.7-93.3,19.2-94.5,19.2L-94.5,19.2z M-104.4,7.3V10h2.6V7.3
		H-104.4z M-75.4,20.5h2.6v2.6h-2.6V20.5z M-79.4,20.5h2.6v2.6h-2.6L-79.4,20.5L-79.4,20.5z M-83.3,20.5h2.6v2.6h-2.6V20.5z
		 M-92.5,20.5h2.6v2.6h-2.6V20.5z M-96.5,20.5h2.6v2.6h-2.6V20.5z M-43.1,19.2c-1.3,0-2.6-0.6-3.5-1.6c-0.9,0.9-2.1,1.5-3.4,1.6
		h-12.1c-2.9,0-5.3-2.4-5.3-5.3v-1.2c0-2.9,2.4-5.3,5.3-5.3h2.6v0.9c0,1-0.8,1.8-1.7,1.8c0,0,0,0,0,0c-0.5,0-1,0-1.5,0.1
		c-1.2,0.3-2,1.4-2,2.6v1.2c0,1.5,1.2,2.7,2.7,2.7h11.7c1.5,0,2.7-1.2,2.7-2.7c0,0,0,0,0,0V7.4h0.9c0.8,0,1.5,0.5,1.7,1.3
		c0,0.2,0.1,0.3,0.1,0.5v5.5c0,1.1,0.9,2,2,2c1.1,0,2-0.8,2-1.9V7.4h0.9c1,0,1.8,0.8,1.8,1.7c0,0,0,0,0,0v5.6c0,1.1,0.9,1.9,2,1.9
		c1,0,1.9-0.8,2-1.9V7.4h0.9c1,0,1.8,0.8,1.8,1.7c0,0,0,0,0,0v4.8c0,0.7,0.3,1.4,0.8,1.9c0.5,0.5,1.2,0.8,1.9,0.8h1.3V7.4h0.9
		c0.9,0,1.6,0.7,1.7,1.6v10.2H-29c-0.2,0-0.4,0-0.5,0c-1.3-0.1-2.5-0.7-3.4-1.6c-0.9,1-2.2,1.6-3.5,1.6c-1.2,0-2.4-0.5-3.3-1.4
		C-40.7,18.7-41.9,19.2-43.1,19.2L-43.1,19.2z M-53,7.3V10h2.6V7.3H-53z M-57,7.3V10h2.6V7.3H-57z M-22.7,17.9h2.6V6.5
		c0-1-0.8-1.8-1.7-1.8c0,0,0,0,0,0h-0.9V17.9z"/>
	<path id="Path_1342" class="st1" d="M-82.7,37v2.7h5.4V37H-82.7z M-24.2,41c0,0.9,0.3,1.8,0.8,2.6c0.3,0.5,0.8,0.9,1.2,1.3
		c0.8,0.5,1.7,0.8,2.7,0.8h4.7v-0.9c0-1-0.8-1.8-1.8-1.8h-2.9c-1.1,0-2-0.9-2-2v-1.3h5.4V37h-5.4v-1.3c0-1.1,0.9-2,2-2h2.9
		c1,0,1.8-0.8,1.8-1.8V31h-4.7c-1,0-1.9,0.3-2.7,0.8c-0.5,0.3-0.9,0.8-1.2,1.3c-0.5,0.8-0.8,1.6-0.8,2.6L-24.2,41L-24.2,41z
		 M-52.8,41c0,0.9,0.3,1.8,0.8,2.6c0.3,0.5,0.8,0.9,1.2,1.3c0.8,0.5,1.7,0.8,2.7,0.8h4.7v-0.9c0-1-0.8-1.8-1.8-1.8h-2.9
		c-1.1,0-2-0.9-2-2v-1.3h5.4V37h-5.4v-1.3c0-1.1,0.9-2,2-2h2.9c1,0,1.8-0.8,1.8-1.8V31h-4.7c-1,0-1.9,0.3-2.7,0.8
		c-0.5,0.3-0.9,0.8-1.2,1.3c-0.5,0.8-0.8,1.6-0.8,2.6L-52.8,41L-52.8,41z M-75.6,31.1c-1,0-1.7,0.8-1.8,1.8v0.9h4v10.2
		c0,1,0.8,1.8,1.8,1.8h0.9v-12h2.2c1,0,1.8-0.8,1.8-1.8v-0.9L-75.6,31.1z M-30.7,31c2.2,0,4.2,1.6,4.6,3.8c0.1,0.3,0.1,0.6,0.1,0.9
		v9.9h-0.9c-1,0-1.8-0.8-1.8-1.8v-8.2c0-1.1-0.9-2-2-2c-1.1,0-2,0.9-2,2c0,0,0,0,0,0v9.9h-0.9c-1,0-1.8-0.8-1.8-1.8v-7.4
		c0-1.5-1.2-2.7-2.7-2.7h-1.3v12h-0.9c-1,0-1.8-0.8-1.8-1.8V31.1h3.7c0.2,0,0.5,0,0.7,0c1.3,0.1,2.6,0.7,3.5,1.6
		C-33.4,31.7-32.1,31-30.7,31L-30.7,31z M-57.3,43.9c0,1,0.8,1.8,1.8,1.8h0.9V32.8c0-1-0.8-1.8-1.8-1.8h-0.9v6h-5.4v-4.2
		c0-1-0.8-1.8-1.8-1.8h-0.9v12.9c0,1,0.8,1.8,1.8,1.8h0.9v-6h5.4V43.9L-57.3,43.9z M-114.9,43.9c0,1,0.8,1.8,1.8,1.8h0.9v-5.3h3.2
		l2,5.3h2.9l-2.2-6c1.4-0.8,2.2-2.4,2.2-4c0-1.9-1.1-3.6-2.9-4.4c-0.6-0.2-1.2-0.4-1.8-0.4h-2v1c0,0.9,0.8,1.7,1.7,1.7
		c0.2,0,0.4,0,0.6,0c1,0.1,1.7,1,1.7,2v0c0,0.9-0.6,1.6-1.4,1.9c-0.2,0.1-0.4,0.1-0.6,0.1h-3.4v-4.9c0-1-0.8-1.8-1.8-1.8h-0.9
		L-114.9,43.9L-114.9,43.9z M-98.8,43.9c0,1,0.8,1.8,1.8,1.8h0.9v-12h2.2c1,0,1.8-0.8,1.8-1.8V31h-9c-1,0-1.7,0.8-1.8,1.8v0.9h4
		L-98.8,43.9L-98.8,43.9z M-88.1,32.8V41c0,1.1,0.9,2,2,2h2.9c1,0,1.8,0.8,1.8,1.8v0.9h-4.7c-1,0-1.9-0.3-2.7-0.8
		c-0.5-0.3-0.9-0.8-1.2-1.3c-0.5-0.8-0.8-1.6-0.8-2.6v-9.9h0.9C-88.9,31.1-88.1,31.9-88.1,32.8L-88.1,32.8z"/>
	<g id="Group_384">
		<g id="Group_381" transform="translate(0 1.252)">
			<path id="Path_347" class="st2" d="M0,5.2C0,2.3,2.4,0,5.3,0c0,0,0,0,0,0l0,0c2.9,0,5.3,2.3,5.3,5.2c0,0,0,0,0,0v38.1
				c0,2.9-2.4,5.3-5.3,5.2c0,0,0,0,0,0l0,0c-2.9,0-5.3-2.3-5.3-5.2c0,0,0,0,0,0V5.2z"/>
		</g>
		<g id="Group_382" transform="translate(0 0.096)">
			
				<radialGradient id="Path_348_1_" cx="-954.6962" cy="516.8597" r="0.5" gradientTransform="matrix(24.081 0 0 -10.547 23009.209 5454.5894)" gradientUnits="userSpaceOnUse">
				<stop  offset="0" style="stop-color:#74B852"/>
				<stop  offset="1" style="stop-color:#8ED457"/>
			</radialGradient>
			<path id="Path_348" class="st3" d="M0,4.8C0,2.2,2.2,0,4.8,0c0,0,0,0,0,0h14.4c2.7,0,4.8,2.2,4.8,4.8l0,0v0.9
				c0,2.7-2.2,4.8-4.8,4.8l0,0H4.8C2.2,10.5,0,8.4,0,5.7c0,0,0,0,0,0V4.8z"/>
		</g>
		<g id="Group_383" transform="translate(39.493)">
			<path id="Path_349" class="st4" d="M0,5.3C0,2.3,2.4,0,5.3,0c0,0,0,0,0,0h0c2.9,0,5.3,2.3,5.3,5.3c0,0,0,0,0,0v39.2
				c0,2.9-2.4,5.3-5.3,5.3c0,0,0,0,0,0h0c-2.9,0-5.3-2.3-5.3-5.3c0,0,0,0,0,0V5.3z"/>
		</g>
		
			<linearGradient id="Path_350_1_" gradientUnits="userSpaceOnUse" x1="-944.1672" y1="537.6678" x2="-944.9763" y2="536.9288" gradientTransform="matrix(18.761 0 0 -18.093 17732.248 9726.751)">
			<stop  offset="0" style="stop-color:#77BC52"/>
			<stop  offset="1" style="stop-color:#77BC52;stop-opacity:0"/>
		</linearGradient>
		<path id="Path_350" class="st5" d="M18.8,10.6L9.5,0.1H4.6c-1.1,0.2-2.1,0.7-3,1.4C0.8,2.4,0.2,3.5,0,4.8l0,5.8V18l10.6,0.2v-7.6
			H18.8z"/>
		
			<radialGradient id="Path_351_1_" cx="-969.9211" cy="555.1592" r="0.411" gradientTransform="matrix(40.81 0 0 -49.706 39612.0625 27619.5977)" gradientUnits="userSpaceOnUse">
			<stop  offset="0" style="stop-color:#A4DC76"/>
			<stop  offset="1" style="stop-color:#93D760"/>
		</radialGradient>
		<path id="Path_351" class="st6" d="M19.9,0.1c0,0,3.2,0.1,4.7,1.6s14.7,15.6,14.7,15.6L25.1,32.6l6.2,6.6h8.2V0h5.1L50,10.5v34.6
			l-5.4,4.6l-15.2,0c-1-0.1-2.1-0.5-3-1C23.9,47,10.6,32.6,10.6,32.6l14.4-15.2L18.1,10L9.2,0.1L19.9,0.1z"/>
		<rect id="Rectangle_389" x="5" y="44.2" class="st2" width="5.6" height="5.6"/>
		
			<radialGradient id="Path_352_1_" cx="-944.8631" cy="536.4488" r="0.938" gradientTransform="matrix(18.757 0 0 -18.094 17759.5742 9758.8096)" gradientUnits="userSpaceOnUse">
			<stop  offset="0" style="stop-color:#77BC52"/>
			<stop  offset="1" style="stop-color:#93D760"/>
		</radialGradient>
		<path id="Path_352" class="st7" d="M31.3,39.2l9.2,10.5h4.9c1.1-0.2,2.1-0.7,3-1.4c0.9-0.9,1.4-2.1,1.6-3.3l0-5.8v-7.4l-10.6-0.2
			v7.6L31.3,39.2z"/>
		
			<linearGradient id="Path_353_1_" gradientUnits="userSpaceOnUse" x1="-944.9958" y1="536.874" x2="-944.6108" y2="537.061" gradientTransform="matrix(18.757 0 0 -18.094 17759.5742 9758.8096)">
			<stop  offset="0" style="stop-color:#77BC52"/>
			<stop  offset="1" style="stop-color:#77BC52;stop-opacity:0"/>
		</linearGradient>
		<path id="Path_353" class="st8" d="M31.3,39.2l9.2,10.5h4.9c1.1-0.2,2.1-0.7,3-1.4c0.9-0.9,1.4-2.1,1.6-3.3l0-5.8v-7.4l-10.6-0.2
			v7.6L31.3,39.2z"/>
		
			<linearGradient id="Path_354_1_" gradientUnits="userSpaceOnUse" x1="-908.6752" y1="535.8402" x2="-908.6752" y2="536.7692" gradientTransform="matrix(10.6 0 0 -17.627 9637.2568 9495.0625)">
			<stop  offset="0" style="stop-color:#65AA40"/>
			<stop  offset="1" style="stop-color:#8ED457"/>
		</linearGradient>
		<path id="Path_354" class="st9" d="M10.6,49.8H4.7c-1.3-0.1-2.5-0.8-3.3-1.7c-0.8-0.9-1.3-2-1.4-3.2V32.2h10.6V49.8z"/>
		
			<linearGradient id="Path_355_1_" gradientUnits="userSpaceOnUse" x1="-908.6752" y1="536.8402" x2="-908.6752" y2="535.9112" gradientTransform="matrix(10.6 0 0 -17.627 9676.7559 9462.8828)">
			<stop  offset="0" style="stop-color:#65AA40"/>
			<stop  offset="1" style="stop-color:#96D863"/>
		</linearGradient>
		<path id="Path_355" class="st10" d="M39.5,0h5.9c1.3,0.1,2.5,0.8,3.3,1.7c0.8,0.9,1.3,2,1.4,3.2v12.7H39.5V0z"/>
	</g>
</g>
</svg>
