<svg xmlns="http://www.w3.org/2000/svg" width="28" height="28" viewBox="0 0 28 28"><path d="M14.9,7.141V12.8h2.11a1.094,1.094,0,1,1,0,2.187H14.9V20.8a2.222,2.222,0,0,0,2.219,2.219,1.094,1.094,0,0,1,0,2.188A4.411,4.411,0,0,1,12.711,20.8V7.141a4.411,4.411,0,0,1,4.407-4.406,1.094,1.094,0,1,1,0,2.187A2.222,2.222,0,0,0,14.9,7.141ZM28,13.891a3.938,3.938,0,1,1-3.938-3.937A3.942,3.942,0,0,1,28,13.891Zm-2.188,0a1.75,1.75,0,1,0-1.75,1.75A1.752,1.752,0,0,0,25.813,13.891ZM20.125,3.938a3.938,3.938,0,1,1,3.937,3.938A3.942,3.942,0,0,1,20.125,3.938Zm2.187,0a1.75,1.75,0,1,0,1.75-1.75A1.752,1.752,0,0,0,22.313,3.938ZM10.391,13.981v4.613a1.055,1.055,0,0,1-.245.69,10.823,10.823,0,0,0-1.725,6.342A2.436,2.436,0,0,1,5.932,28H4.458A2.436,2.436,0,0,1,1.97,25.626,10.8,10.8,0,0,0,.247,19.287,1.094,1.094,0,0,1,0,18.594V13.981A4.853,4.853,0,0,1,4.848,9.133h.7a4.853,4.853,0,0,1,4.848,4.848Zm-2.188,0a2.663,2.663,0,0,0-2.66-2.66h-.7a2.663,2.663,0,0,0-2.66,2.66v4.263a13.368,13.368,0,0,1,1.97,7.382c0,.072.138.187.3.187H5.932c.163,0,.3-.115.3-.187A13.368,13.368,0,0,1,8.2,18.244V13.981ZM1.422,3.719A3.719,3.719,0,1,1,5.141,7.438,3.723,3.723,0,0,1,1.422,3.719Zm2.188,0A1.531,1.531,0,1,0,5.141,2.188,1.533,1.533,0,0,0,3.609,3.719ZM28,24.063a3.938,3.938,0,1,1-3.938-3.937A3.942,3.942,0,0,1,28,24.063Zm-2.188,0a1.75,1.75,0,1,0-1.75,1.75A1.752,1.752,0,0,0,25.813,24.063Z" fill="#fff"></path></svg>