<svg xmlns="http://www.w3.org/2000/svg" width="21.5" height="21.5" viewBox="0 0 21.5 21.5"><g transform="translate(100 -9)"><path d="M.828,86.625a.828.828,0,0,0,.828-.828V80.828a.828.828,0,0,0-1.656,0V85.8A.828.828,0,0,0,.828,86.625Z" transform="translate(-100 -67.619)" fill="#ffb726"></path><path d="M472.828,80a.828.828,0,0,0-.828.828V85.8a.828.828,0,1,0,1.656,0V80.828A.828.828,0,0,0,472.828,80Z" transform="translate(-552.156 -67.619)" fill="#ffb726"></path><path d="M91.117,9.238V2.52A2.522,2.522,0,0,0,88.6,0H78.52A2.522,2.522,0,0,0,76,2.52V9.238a7.569,7.569,0,0,0,6.719,7.512v3.07H80.2a.84.84,0,0,0,0,1.68h6.719a.84.84,0,0,0,0-1.68H84.4V16.75A7.569,7.569,0,0,0,91.117,9.238Zm-13.437,0V2.52a.841.841,0,0,1,.84-.84H88.6a.841.841,0,0,1,.84.84V9.238a5.879,5.879,0,1,1-11.758,0Z" transform="translate(-172.853 9)" fill="#ffb726"></path><path d="M161.418,84.945l-.289,1.74a.828.828,0,0,0,1.2.871l1.566-.813,1.566.813a.828.828,0,0,0,1.2-.871l-.289-1.74,1.257-1.238a.828.828,0,0,0-.458-1.409l-1.744-.263-.789-1.578a.828.828,0,0,0-1.482,0l-.789,1.578-1.744.263a.828.828,0,0,0-.458,1.409Zm1.617-1.336a.828.828,0,0,0,.617-.449l.24-.481.24.481a.828.828,0,0,0,.617.449l.532.08-.383.377a.828.828,0,0,0-.236.726l.088.53-.477-.248a.828.828,0,0,0-.763,0l-.477.248.088-.53a.828.828,0,0,0-.236-.726l-.383-.377Z" transform="translate(-253.143 -67.613)" fill="#ffb726"></path></g></svg>